<svg xmlns="http://www.w3.org/2000/svg" width="168" height="190.5" viewBox="0 0 168 190.5">
  <defs>
    <style>
      .cls-1 {
        fill: #304859;
        fill-rule: evenodd;
      }
    </style>
  </defs>
  <path id="hex_-_aws" data-name="hex - aws" class="cls-1" d="M358.524,2231.72l-11.713-4.2v-17.17l11.713,3.99v17.38Zm2.149,0,11.713-4.2v-17.17l-11.713,3.99v17.38Zm-12.658-22.65,11.855-3.34,10.992,3.55-10.992,3.73Zm-3.436-1.33-11.714-4.2v-17.17l11.714,3.99v17.38Zm2.148,0,11.714-4.2v-17.17l-11.714,3.99v17.38Zm-12.658-22.65,11.855-3.34,10.993,3.55-10.993,3.73Zm37.842,22.65-11.714-4.2v-17.17l11.714,3.99v17.38Zm2.148,0,11.714-4.2v-17.17l-11.714,3.99v17.38ZM361.4,2185.09l11.854-3.34,10.993,3.55-10.993,3.73Zm24.455-1.33-11.714-4.2v-17.17l11.714,3.99v17.38Zm2.148,0,11.714-4.2v-17.17l-11.714,3.99v17.38Zm-12.658-22.65,11.855-3.34,10.993,3.55-10.993,3.73Zm37.842,22.65-11.714-4.2v-17.17l11.714,3.99v17.38Zm2.148,0,11.714-4.2v-17.17l-11.714,3.99v17.38Zm-12.658-22.65,11.855-3.34,10.992,3.55-10.992,3.73ZM380,2290a11.019,11.019,0,0,1-5.533-1.48l-72.935-42.1a11.091,11.091,0,0,1-5.533-9.58v-84.19a11.091,11.091,0,0,1,5.533-9.58l72.935-42.1a11.1,11.1,0,0,1,11.066,0l72.934,42.1a11.091,11.091,0,0,1,5.533,9.58v84.19a11.091,11.091,0,0,1-5.533,9.58l-72.934,42.1A11.017,11.017,0,0,1,380,2290Zm0-188.51a9.039,9.039,0,0,0-4.534,1.21l-72.934,42.1a9.081,9.081,0,0,0-4.534,7.85v84.19a9.081,9.081,0,0,0,4.534,7.85l72.934,42.1a9.065,9.065,0,0,0,9.067,0l72.935-42.1a9.082,9.082,0,0,0,4.533-7.85v-84.19a9.082,9.082,0,0,0-4.533-7.85l-72.935-42.1A9.036,9.036,0,0,0,380,2101.49Z" transform="translate(-296 -2099.5)"/>
</svg>
