<svg xmlns="http://www.w3.org/2000/svg" width="168" height="190.5" viewBox="0 0 168 190.5">
  <defs>
    <style>
      .cls-1 {
        fill: #304859;
        fill-rule: evenodd;
      }
    </style>
  </defs>
  <path id="hex_-_bigdata" data-name="hex - bigdata" class="cls-1" d="M2133.45,2216.66v-2c11.4,0,21.04-8.88,21.04-19.4a18.827,18.827,0,0,0-6.4-13.79,21.894,21.894,0,0,0-17.05-5.49l-0.82.08-0.24-.78c-3.57-11.64-14.66-15.67-24.09-14.51l-0.43.06-0.34-.28a27.4,27.4,0,0,0-27.44-4.99,28.72,28.72,0,0,0-18.34,22.74l-0.07.45-0.39.24c-8.26,5.1-11.77,13.11-9.41,21.44a19.708,19.708,0,0,0,19.26,14.23v2a21.671,21.671,0,0,1-21.18-15.69c-3.03-10.67,3.05-19.04,9.9-23.44a30.662,30.662,0,0,1,19.54-23.85,29.377,29.377,0,0,1,29.09,5.06c9.94-1.06,21.47,3.2,25.57,15.19a24.048,24.048,0,0,1,17.78,6.06,20.816,20.816,0,0,1,7.05,15.27C2156.48,2206.86,2145.94,2216.66,2133.45,2216.66Zm-23.14,22.96c-7.08,0-15.73-1.69-16.89-6.47a2.438,2.438,0,0,1-.13-0.8v-36.54c0.02-5.2,8.56-7.52,17.02-7.52s17.02,2.33,17.02,7.53v36.53a2.438,2.438,0,0,1-.13.8C2126.04,2237.93,2117.39,2239.62,2110.31,2239.62Zm-15.02-43.68v36.41a0.693,0.693,0,0,0,.03.2l0.03,0.1c0.67,2.88,6.96,4.98,14.96,4.98s14.29-2.1,14.96-4.98l0.02-.1a0.477,0.477,0,0,0,.04-0.2v-36.6c-0.1-3.55-7.79-5.46-15.02-5.46s-14.92,1.91-15.02,5.46v0.19Zm15.02,6.18c-9.95,0-16.72-3.66-17.01-6.18l1.98-.23c0.32,1,5.64,4.42,15.03,4.42s14.71-3.42,15.03-4.45l1.98,0.26C2127.03,2198.46,2120.25,2202.12,2110.31,2202.12Zm-0.08,11.84c-9.95,0-16.51-3.64-16.91-6.29l-0.03-.27h1l0.97-.2,0.04,0.16c0.24,1.08,5.36,4.6,14.93,4.6,9.63,0,14.85-3.59,15.11-4.68l1.98,0.23C2127.03,2210.14,2120.22,2213.96,2110.23,2213.96Zm0,12.49c-9.95,0-16.5-3.65-16.91-6.3l-0.03-.27h1l0.97-.2,0.04,0.16c0.24,1.08,5.36,4.61,14.93,4.61,9.63,0,14.85-3.6,15.11-4.69l1.98,0.23C2127.03,2222.62,2120.22,2226.45,2110.23,2226.45Zm-19.79,11.17h-16.13v-48.09h16.13v48.09Zm-14.13-1.99h12.14v-44.1h-12.14v44.1Zm6.07-33.51a2.76,2.76,0,1,1,2.76-2.76A2.759,2.759,0,0,1,2082.38,2202.12Zm0-3.52a0.76,0.76,0,1,0,0,1.52A0.76,0.76,0,1,0,2082.38,2198.6ZM2102,2290a11,11,0,0,1-5.53-1.48l-72.94-42.1a11.1,11.1,0,0,1-5.53-9.58v-84.19a11.1,11.1,0,0,1,5.53-9.58l72.94-42.1a11.088,11.088,0,0,1,11.06,0l72.94,42.1a11.1,11.1,0,0,1,5.53,9.58v84.19a11.083,11.083,0,0,1-5.53,9.58l-72.94,42.1A11,11,0,0,1,2102,2290Zm0-188.51a8.995,8.995,0,0,0-4.53,1.21l-72.94,42.1a9.071,9.071,0,0,0-4.53,7.85v84.19a9.071,9.071,0,0,0,4.53,7.85l72.94,42.1a9.052,9.052,0,0,0,9.06,0l72.94-42.1a9.092,9.092,0,0,0,4.53-7.85v-84.19a9.092,9.092,0,0,0-4.53-7.85l-72.94-42.1A8.995,8.995,0,0,0,2102,2101.49Z" transform="translate(-2018 -2099.5)"/>
</svg>
