<svg id="d4f540b2-6bc5-4f5f-b233-724cfa79bf53" data-name="Layer 1" xmlns="http://www.w3.org/2000/svg" viewBox="0 0 168.08 190.65"><title>hex-devops</title><path d="M1113.54,1897.82a11.07,11.07,0,0,1-5.54-1.48l-73-42.13a11.1,11.1,0,0,1-5.54-9.59v-84.26a11.1,11.1,0,0,1,5.54-9.59l73-42.13a11.11,11.11,0,0,1,11.07,0l73,42.13a11.1,11.1,0,0,1,5.54,9.59v84.26a11.1,11.1,0,0,1-5.54,9.59l-73,42.13A11.07,11.07,0,0,1,1113.54,1897.82Zm0-188.65a9.07,9.07,0,0,0-4.54,1.21l-73,42.13a9.09,9.09,0,0,0-4.54,7.86v84.26a9.09,9.09,0,0,0,4.54,7.86l73,42.13a9.1,9.1,0,0,0,9.07,0l73-42.13a9.09,9.09,0,0,0,4.54-7.86v-84.26a9.09,9.09,0,0,0-4.54-7.86l-73-42.13A9.07,9.07,0,0,0,1113.54,1709.17Z" transform="translate(-1029.5 -1707.17)" fill="#304859"/><path d="M1167.05,1841.71h-60.59a1,1,0,0,1-1-1v-18a1,1,0,0,1,1-1h60.59a1,1,0,0,1,1,1v18A1,1,0,0,1,1167.05,1841.71Zm-59.59-2h58.59v-16h-58.59v16Z" transform="translate(-1029.5 -1707.17)" fill="#304859"/><path d="M1117.68,1835a3.24,3.24,0,1,1,3.24-3.24A3.24,3.24,0,0,1,1117.68,1835Zm0-4.47a1.24,1.24,0,1,0,1.24,1.24A1.24,1.24,0,0,0,1117.68,1830.5Z" transform="translate(-1029.5 -1707.17)" fill="#304859"/><path d="M1167.05,1817h-60.59a1,1,0,0,1-1-1v-18a1,1,0,0,1,1-1h60.59a1,1,0,0,1,1,1v18A1,1,0,0,1,1167.05,1817Zm-59.59-2h58.59v-16h-58.59v16Z" transform="translate(-1029.5 -1707.17)" fill="#304859"/><path d="M1117.68,1810.29a3.24,3.24,0,1,1,3.24-3.24A3.24,3.24,0,0,1,1117.68,1810.29Zm0-4.47a1.24,1.24,0,1,0,1.24,1.24A1.24,1.24,0,0,0,1117.68,1805.82Z" transform="translate(-1029.5 -1707.17)" fill="#304859"/><path d="M1080.5,1796.18h-11a1,1,0,0,1,0-2h11A1,1,0,0,1,1080.5,1796.18Z" transform="translate(-1029.5 -1707.17)" fill="#304859"/><path d="M1074.9,1796.18a1,1,0,0,1-1-1v-6.78a1,1,0,0,1,2,0v6.78A1,1,0,0,1,1074.9,1796.18Z" transform="translate(-1029.5 -1707.17)" fill="#304859"/><path d="M1122.13,1777.2a4.51,4.51,0,1,1,4.51-4.51A4.51,4.51,0,0,1,1122.13,1777.2Zm0-7a2.51,2.51,0,1,0,2.51,2.51A2.51,2.51,0,0,0,1122.13,1770.19Z" transform="translate(-1029.5 -1707.17)" fill="#304859"/><path d="M1089.2,1789.41h-28.42a2.5,2.5,0,0,1-2.5-2.5v-21.68a2.5,2.5,0,0,1,2.5-2.5h28.42a2.5,2.5,0,0,1,2.5,2.5v21.68A2.5,2.5,0,0,1,1089.2,1789.41Zm-28.42-24.68a0.5,0.5,0,0,0-.5.5v21.68a0.5,0.5,0,0,0,.5.5h28.42a0.5,0.5,0,0,0,.5-0.5v-21.68a0.5,0.5,0,0,0-.5-0.5h-28.42Z" transform="translate(-1029.5 -1707.17)" fill="#304859"/><path d="M1090.7,1784.92h-31.42a1,1,0,0,1,0-2h31.42A1,1,0,0,1,1090.7,1784.92Z" transform="translate(-1029.5 -1707.17)" fill="#304859"/><path d="M1116,1773.7h-0.77a1,1,0,0,1,0-2H1116A1,1,0,0,1,1116,1773.7Zm-3.77,0h-0.77a1,1,0,0,1,0-2h0.77A1,1,0,0,1,1112.26,1773.7Zm-3.77,0h-0.77a1,1,0,1,1,0-2h0.77A1,1,0,1,1,1108.48,1773.7Zm-3.77,0h-0.77a1,1,0,0,1,0-2h0.77A1,1,0,0,1,1104.71,1773.7Zm-3.77,0h-0.77a1,1,0,0,1,0-2h0.77A1,1,0,0,1,1100.94,1773.7Zm-3.77,0h-0.77a1,1,0,0,1,0-2h0.77A1,1,0,0,1,1097.16,1773.7Z" transform="translate(-1029.5 -1707.17)" fill="#304859"/><path d="M1122.13,1794.5a1,1,0,0,1-1-1v-0.63a1,1,0,0,1,2,0v0.63A1,1,0,0,1,1122.13,1794.5Zm0-3.63a1,1,0,0,1-1-1v-0.63a1,1,0,0,1,2,0v0.63A1,1,0,0,1,1122.13,1790.86Zm0-3.63a1,1,0,0,1-1-1v-0.63a1,1,0,0,1,2,0v0.63A1,1,0,0,1,1122.13,1787.23Zm0-3.63a1,1,0,0,1-1-1V1782a1,1,0,0,1,2,0v0.63A1,1,0,0,1,1122.13,1783.59Zm0-3.63a1,1,0,0,1-1-1v-0.63a1,1,0,0,1,2,0V1779A1,1,0,0,1,1122.13,1780Z" transform="translate(-1029.5 -1707.17)" fill="#304859"/><path d="M1075,1824.35a4.51,4.51,0,1,1,4.51-4.51A4.51,4.51,0,0,1,1075,1824.35Zm0-7a2.51,2.51,0,1,0,2.51,2.51A2.51,2.51,0,0,0,1075,1817.34Z" transform="translate(-1029.5 -1707.17)" fill="#304859"/><path d="M1078.51,1819.84" transform="translate(-1029.5 -1707.17)" fill="#304859"/><path d="M1100.45,1820.84h-0.77a1,1,0,0,1,0-2h0.77A1,1,0,0,1,1100.45,1820.84Zm-3.1,0h-0.77a1,1,0,0,1,0-2h0.77A1,1,0,0,1,1097.35,1820.84Zm-3.1,0h-0.77a1,1,0,0,1,0-2h0.77A1,1,0,0,1,1094.25,1820.84Zm-3.1,0h-0.77a1,1,0,0,1,0-2h0.77A1,1,0,0,1,1091.16,1820.84Zm-3.1,0h-0.77a1,1,0,0,1,0-2h0.77A1,1,0,0,1,1088.06,1820.84Zm-3.1,0h-0.77a1,1,0,0,1,0-2H1085A1,1,0,0,1,1085,1820.84Zm-3.1,0h-0.77a1,1,0,0,1,0-2h0.77A1,1,0,0,1,1081.87,1820.84Z" transform="translate(-1029.5 -1707.17)" fill="#304859"/><path d="M1075,1814.83a1,1,0,0,1-1-1,1,1,0,0,1,1-1,1,1,0,0,1,1,1v0.05A1,1,0,0,1,1075,1814.83Zm0-2.38a1,1,0,0,1-1-1v-0.77a1,1,0,0,1,2,0v0.77A1,1,0,0,1,1075,1812.45Zm0-3.1a1,1,0,0,1-1-1v-0.77a1,1,0,1,1,2,0v0.77A1,1,0,0,1,1075,1809.36Zm0-3.1a1,1,0,0,1-1-1v-0.77a1,1,0,1,1,2,0v0.77A1,1,0,0,1,1075,1806.26Zm0-3.1a1,1,0,0,1-1-1v-0.77a1,1,0,1,1,2,0v0.77A1,1,0,0,1,1075,1803.16Zm0-3.1a1,1,0,0,1-1-1v-0.77a1,1,0,1,1,2,0v0.77A1,1,0,0,1,1075,1800.07Z" transform="translate(-1029.5 -1707.17)" fill="#304859"/></svg>