<svg xmlns="http://www.w3.org/2000/svg" width="168" height="190.5" viewBox="0 0 168 190.5">
  <defs>
    <style>
      .cls-1 {
        fill: #304859;
        fill-rule: evenodd;
      }
    </style>
  </defs>
  <path id="hex_-_openstack" data-name="hex - openstack" class="cls-1" d="M1069,2290a11,11,0,0,1-5.53-1.48l-72.938-42.1a11.091,11.091,0,0,1-5.533-9.58v-84.19a11.091,11.091,0,0,1,5.533-9.58l72.938-42.1a11.088,11.088,0,0,1,11.06,0l72.94,42.1a11.1,11.1,0,0,1,5.53,9.58v84.19a11.083,11.083,0,0,1-5.53,9.58l-72.94,42.1A11,11,0,0,1,1069,2290Zm0-188.51a9.022,9.022,0,0,0-4.53,1.21l-72.938,42.1a9.081,9.081,0,0,0-4.534,7.85v84.19a9.081,9.081,0,0,0,4.534,7.85l72.938,42.1a9.052,9.052,0,0,0,9.06,0l72.94-42.1a9.092,9.092,0,0,0,4.53-7.85v-84.19a9.092,9.092,0,0,0-4.53-7.85l-72.94-42.1A9.022,9.022,0,0,0,1069,2101.49Zm-32.27,131.69a5.888,5.888,0,0,1-4.18-1.74,5.8,5.8,0,0,1-1.71-4.16l0.03-17.65h17.48l-0.01,4.56a1.583,1.583,0,0,0,.45,1.11,1.542,1.542,0,0,0,1.1.45H1088a1.581,1.581,0,0,0,1.58-1.57l0.01-4.56h17.47l-0.04,17.65a5.922,5.922,0,0,1-5.92,5.9l-64.36.01h-0.01Zm-3.87-21.55-0.02,15.65a3.84,3.84,0,0,0,1.13,2.75,3.882,3.882,0,0,0,2.76,1.15h0.01l64.36-.01a3.916,3.916,0,0,0,3.92-3.9l0.03-15.65h-13.46l-0.01,2.57a3.589,3.589,0,0,1-3.57,3.56h-38.12a3.525,3.525,0,0,1-2.51-1.04,3.489,3.489,0,0,1-1.04-2.53v-2.55h-13.48Zm74.2-3.6H1089.6l-0.1-26.51,17.46-.01Zm-15.47-2h13.47l-0.09-22.52H1091.5Zm-43.24,2h-17.47l-0.1-26.51h17.47Zm-15.48-1.99h13.48l-0.09-22.52h-13.48Zm74.17-26.17h-17.46v-4.08a1.553,1.553,0,0,0-1.55-1.56h0l-38.12-.02a1.571,1.571,0,0,0-1.57,1.56l-0.01,4.07-17.47-.01,0.04-17.16a5.935,5.935,0,0,1,5.93-5.89l64.36,0.03a5.911,5.911,0,0,1,5.9,5.9Zm-15.46-2h13.47l0.04-15.16a3.911,3.911,0,0,0-3.9-3.9l-64.36-.03a3.931,3.931,0,0,0-3.93,3.9l-0.04,15.15,13.47,0.01,0.01-2.08a3.568,3.568,0,0,1,3.57-3.55l38.11,0.03h0.01a3.515,3.515,0,0,1,2.51,1.03,3.571,3.571,0,0,1,1.04,2.53v2.07Z" transform="translate(-985 -2099.5)"/>
</svg>
