<svg xmlns="http://www.w3.org/2000/svg" width="168" height="190.5" viewBox="0 0 168 190.5">
  <defs>
    <style>
      .cls-1 {
        fill: #304859;
        fill-rule: evenodd;
      }
    </style>
  </defs>
  <path id="hex_-_linux" data-name="hex - linux" class="cls-1" d="M724,2290a11.014,11.014,0,0,1-5.533-1.48l-72.935-42.1a11.091,11.091,0,0,1-5.533-9.58v-84.19a11.091,11.091,0,0,1,5.533-9.58l72.935-42.1a11.1,11.1,0,0,1,11.065,0l72.935,42.1a11.091,11.091,0,0,1,5.533,9.58v84.19a11.091,11.091,0,0,1-5.533,9.58l-72.935,42.1A11.013,11.013,0,0,1,724,2290Zm0-188.51a9.038,9.038,0,0,0-4.533,1.21l-72.934,42.1a9.081,9.081,0,0,0-4.534,7.85v84.19a9.081,9.081,0,0,0,4.534,7.85l72.934,42.1a9.065,9.065,0,0,0,9.067,0l72.935-42.1a9.082,9.082,0,0,0,4.533-7.85v-84.19a9.082,9.082,0,0,0-4.533-7.85l-72.935-42.1A9.036,9.036,0,0,0,724,2101.49Zm-36.946,88.01v16.66H694.2V2189.5h-7.144Zm75.207,4.35-9.993,12.31h8.789l5.739-8.5,5.418,8.5h9.712l-9.952-12.52,9.631-11.02h-8.869l-5.1,6.88-5.09-6.88h-9.4l9.11,11.23h0Zm-36.366-11.23v14.83a8.128,8.128,0,0,0,1.531,4.84,10.09,10.09,0,0,0,4.382,3.36,16.447,16.447,0,0,0,6.575,1.23,19.108,19.108,0,0,0,7.324-1.22,8.747,8.747,0,0,0,4.255-3.4,9.5,9.5,0,0,0,1.344-5.1v-14.54h-7.431v13.56a8.914,8.914,0,0,1-.5,3.2,3.877,3.877,0,0,1-1.7,2.01,6.676,6.676,0,0,1-3.3.7q-5.027,0-5.023-5.69v-13.78h-7.465Zm-28.488,0v23.54h6.5v-17.71l8.789,17.71h10.361v-23.54h-6.622v17.42l-8.756-17.42H697.406Zm-10.353,0v4.08H694.2v-4.08h-7.144Zm-20.979,0v23.54h19.15v-4.86H673.539v-18.68h-7.465Z" transform="translate(-640 -2099.5)"/>
</svg>
