<svg xmlns="http://www.w3.org/2000/svg" width="168" height="190.5" viewBox="0 0 168 190.5">
  <defs>
    <style>
      .cls-1 {
        fill: #304859;
        fill-rule: evenodd;
      }
    </style>
  </defs>
  <path id="hex_-_azure" data-name="hex - azure" class="cls-1" d="M1758,2290a11,11,0,0,1-5.53-1.48l-72.94-42.1a11.1,11.1,0,0,1-5.53-9.58v-84.19a11.1,11.1,0,0,1,5.53-9.58l72.94-42.1a11.088,11.088,0,0,1,11.06,0l72.94,42.1a11.1,11.1,0,0,1,5.53,9.58v84.19a11.083,11.083,0,0,1-5.53,9.58l-72.94,42.1A11,11,0,0,1,1758,2290Zm0-188.51a8.995,8.995,0,0,0-4.53,1.21l-72.94,42.1a9.071,9.071,0,0,0-4.53,7.85v84.19a9.071,9.071,0,0,0,4.53,7.85l72.94,42.1a9.077,9.077,0,0,0,9.06,0l72.94-42.1a9.092,9.092,0,0,0,4.53-7.85v-84.19a9.092,9.092,0,0,0-4.53-7.85l-72.94-42.1A8.995,8.995,0,0,0,1758,2101.49Zm7.62,96.54a6.076,6.076,0,0,0-5.14,3.25h-31.94a9.74,9.74,0,1,1,0-19.48h4.6a15.118,15.118,0,0,1,1.08-3.25,11.694,11.694,0,0,1,.27-1.35,12.662,12.662,0,0,1,11.37-6.5,13.23,13.23,0,0,1,10.56,5.41,20.148,20.148,0,0,1,4.33-1.35,17.42,17.42,0,0,0-31.13,2.71h-1.08a14.038,14.038,0,0,0-14.35,14.07,14.439,14.439,0,0,0,14.35,14.34h32.21a5.526,5.526,0,0,0,10.56-2.16A5.558,5.558,0,0,0,1765.62,2198.03Zm17.87-10.82a20.044,20.044,0,0,0-17.87-11.1,19.5,19.5,0,0,0-19.22,15.43,15.76,15.76,0,0,0-11.1,6.49h23.55a9.054,9.054,0,0,1,6.77-3.24,8.66,8.66,0,0,1,0,17.32,9.063,9.063,0,0,1-6.77-3.25h-25.98a15.414,15.414,0,0,0,15.16,13.26h35.19A17.456,17.456,0,0,0,1783.49,2187.21Z" transform="translate(-1674 -2099.5)"/>
</svg>
