<svg id="Layer_1" data-name="Layer 1" xmlns="http://www.w3.org/2000/svg" viewBox="0 0 321.76 339.65"><defs><style>.cls-1{fill:none;stroke:#fff;stroke-miterlimit:10;stroke-width:2.3px;}.cls-2{fill:#fff;}.cls-3{fill:#bcbec0;}</style></defs><title>Hex</title><path class="cls-1" d="M169.56,27.82l110,63.48a15.17,15.17,0,0,1,7.53,13.14v127a15.17,15.17,0,0,1-7.53,13.14l-110,63.48a15.17,15.17,0,0,1-15.17,0l-110-63.48a15.17,15.17,0,0,1-7.55-13.14v-127a15.17,15.17,0,0,1,7.53-13.14l110-63.48A15.17,15.17,0,0,1,169.56,27.82Z"/><path class="cls-2" d="M215.22,186.35v.58c0,.61-.68,1.1-1.51,1.1h-5.54a2.88,2.88,0,0,0,.11-.77V186a3.55,3.55,0,0,0-.1-.77.26.26,0,0,1,.11,0h5.42C214.54,185.25,215.22,185.74,215.22,186.35Z"/><path class="cls-2" d="M215.12,176.94v.6c0,.6-.68,1.09-1.52,1.09h-5.52a3.55,3.55,0,0,0,.1-.77v-1.19a2.9,2.9,0,0,0-.11-.79h5.54C214.44,175.84,215.12,176.34,215.12,176.94Z"/><path class="cls-2" d="M215,195.55v.58c0,.61-.68,1.1-1.51,1.1H208a2.88,2.88,0,0,0,.11-.77v-1.21a3.55,3.55,0,0,0-.1-.77.26.26,0,0,1,.11,0h5.42C214.35,194.45,215,194.94,215,195.55Z"/><path class="cls-2" d="M215,168.11v.58c0,.61-.68,1.1-1.51,1.1H208a3.55,3.55,0,0,0,.1-.77v-1.21a3.55,3.55,0,0,0-.1-.77h5.52C214.31,167,215,167.49,215,168.11Z"/><path class="cls-2" d="M214.9,159.17v.58c0,.61-.67,1.1-1.51,1.1h-5.54a2.88,2.88,0,0,0,.11-.77v-1.21a3.55,3.55,0,0,0-.1-.77h5.52C214.24,158.07,214.9,158.56,214.9,159.17Z"/><path class="cls-2" d="M214.9,150v.58c0,.61-.67,1.1-1.51,1.1h-5.52a3.55,3.55,0,0,0,.1-.77v-1.21a2.88,2.88,0,0,0-.11-.77h5.54C214.24,148.93,214.9,149.42,214.9,150Z"/><path class="cls-2" d="M214.81,140.88v.6c0,.6-.68,1.09-1.52,1.09h-5.4a.26.26,0,0,1-.11,0,3.55,3.55,0,0,0,.1-.77v-1.19a3.55,3.55,0,0,0-.1-.77.26.26,0,0,1,.11,0h5.4C214.13,139.79,214.81,140.28,214.81,140.88Z"/><path class="cls-2" d="M208.28,186v1.21a2.88,2.88,0,0,1-.11.77c-.77,0-1.38-.5-1.38-1.09v-.58c0-.58.62-1.06,1.4-1.09A3.55,3.55,0,0,1,208.28,186Z"/><path class="cls-2" d="M208.17,176.64v1.19a3.55,3.55,0,0,1-.1.77c-.79,0-1.4-.5-1.4-1.07v-.6c0-.57.61-1,1.38-1.09A2.9,2.9,0,0,1,208.17,176.64Z"/><path class="cls-2" d="M208.09,195.24v1.21a2.88,2.88,0,0,1-.11.77c-.77,0-1.38-.5-1.38-1.09v-.58c0-.58.62-1.06,1.4-1.09A3.55,3.55,0,0,1,208.09,195.24Z"/><path class="cls-2" d="M208.05,167.79V169a3.55,3.55,0,0,1-.1.77c-.79,0-1.4-.5-1.4-1.09v-.58c0-.58.61-1,1.4-1.09A3.55,3.55,0,0,1,208.05,167.79Z"/><path class="cls-2" d="M208,158.86v1.21a2.88,2.88,0,0,1-.11.77c-.77,0-1.38-.5-1.38-1.09v-.58c0-.58.61-1,1.4-1.09A3.55,3.55,0,0,1,208,158.86Z"/><path class="cls-2" d="M208,149.71v1.21a3.55,3.55,0,0,1-.1.77c-.79,0-1.4-.5-1.4-1.09V150c0-.58.61-1,1.38-1.09A2.88,2.88,0,0,1,208,149.71Z"/><path class="cls-2" d="M207.87,140.58v1.19a3.55,3.55,0,0,1-.1.77c-.77,0-1.4-.5-1.4-1.07v-.6c0-.57.62-1,1.4-1.07A3.55,3.55,0,0,1,207.87,140.58Z"/><path class="cls-2" d="M206.65,183.81a1.78,1.78,0,0,1,1.53,1.45c-.77,0-1.4.5-1.4,1.09v.58c0,.58.61,1,1.38,1.09a1.74,1.74,0,0,1-1.52,1.44h-5.78a1.1,1.1,0,0,1-.61-.18V184a1.1,1.1,0,0,1,.61-.18Z"/><path class="cls-2" d="M206.56,174.42a1.72,1.72,0,0,1,1.51,1.44c-.77,0-1.38.52-1.38,1.09v.6c0,.57.61,1,1.4,1.07a1.74,1.74,0,0,1-1.52,1.45h-5.78a1.15,1.15,0,0,1-.52-.12v-5.4a1.15,1.15,0,0,1,.52-.12Z"/><path class="cls-2" d="M206.48,193a1.75,1.75,0,0,1,1.52,1.45c-.77,0-1.4.5-1.4,1.09v.58c0,.58.61,1,1.38,1.09a1.71,1.71,0,0,1-1.51,1.44h-5.8a1.11,1.11,0,0,1-.42-.08v-5.48a1.11,1.11,0,0,1,.42-.08Z"/><path class="cls-2" d="M206.44,165.57A1.75,1.75,0,0,1,208,167c-.79,0-1.4.5-1.4,1.09v.58c0,.58.61,1,1.4,1.09a1.75,1.75,0,0,1-1.52,1.45h-5.8a1.18,1.18,0,0,1-.38-.07v-5.52a1.18,1.18,0,0,1,.38-.07Z"/><path class="cls-2" d="M206.35,147.5a1.71,1.71,0,0,1,1.51,1.44c-.77,0-1.38.5-1.38,1.09v.58c0,.58.61,1,1.4,1.09a1.75,1.75,0,0,1-1.52,1.45h-5.78a1.16,1.16,0,0,1-.31,0v-5.56a1.16,1.16,0,0,1,.31,0Z"/><path class="cls-2" d="M206.35,156.64a1.75,1.75,0,0,1,1.52,1.45c-.79,0-1.4.5-1.4,1.09v.58c0,.58.61,1,1.38,1.09a1.71,1.71,0,0,1-1.51,1.44h-5.78a1.16,1.16,0,0,1-.31,0v-5.56a1.16,1.16,0,0,1,.31,0Z"/><path class="cls-2" d="M206.25,138.35a1.76,1.76,0,0,1,1.53,1.45c-.77,0-1.4.5-1.4,1.07v.6c0,.57.62,1,1.4,1.07a1.76,1.76,0,0,1-1.53,1.45h-5.78a.53.53,0,0,1-.2,0v-5.59a.53.53,0,0,1,.2,0Z"/><path class="cls-2" d="M200.26,198.58v2c0,2.59-2.84,4.7-6.34,4.7h-.57c0-.87-1-1.57-2.23-1.57h-1.19c-1.21,0-2.19.71-2.21,1.57h-3.53a2,2,0,0,0-2.2-1.47h-1.21a2.07,2.07,0,0,0-2.21,1.47h-3.52a2.07,2.07,0,0,0-2.21-1.47h-1.19a2,2,0,0,0-2.21,1.47h-3.33a2.12,2.12,0,0,0-2.2-1.4H162.7a2.1,2.1,0,0,0-2.19,1.4h-3.28a2.17,2.17,0,0,0-2.16-1.26h-1.21a2.19,2.19,0,0,0-2.17,1.26h-3.9a2.24,2.24,0,0,0-2.13-1.17h-1.21a2.22,2.22,0,0,0-2.12,1.17h-3.68a2.15,2.15,0,0,0-2.2-1.36h-1.21a2.12,2.12,0,0,0-2.17,1.34,7.12,7.12,0,0,1-4.83-1.82l21.51-21.47a2.74,2.74,0,0,0,2.09.87h23.47c1.36,0,2.46-.81,2.46-1.82V156.31a1.67,1.67,0,0,0-.9-1.4l21.53-21.47a4.17,4.17,0,0,1,1.85,3.31v1.63a2.08,2.08,0,0,0-1.41,2.2v1.19a2.08,2.08,0,0,0,1.41,2.2v3.57a2.16,2.16,0,0,0-1.32,2.17v1.21a2.18,2.18,0,0,0,1.32,2.19v3.57a2.18,2.18,0,0,0-1.32,2.19v1.21a2.16,2.16,0,0,0,1.32,2.17v3.39a2.2,2.2,0,0,0-1.24,2.16V169a2.2,2.2,0,0,0,1.24,2.16v3.38a2.24,2.24,0,0,0-1.11,2.1v1.19a2.24,2.24,0,0,0,1.11,2.1v4a2.31,2.31,0,0,0-1,2v1.21a2.28,2.28,0,0,0,1,2v3.81a2.23,2.23,0,0,0-1.19,2.14v1.21A2.21,2.21,0,0,0,200.26,198.58Z"/><path class="cls-2" d="M200.26,193.09v5.48a2.21,2.21,0,0,1-1.19-2.13v-1.21A2.23,2.23,0,0,1,200.26,193.09Z"/><path class="cls-2" d="M200.26,184v5.29a2.28,2.28,0,0,1-1-2V186A2.31,2.31,0,0,1,200.26,184Z"/><path class="cls-2" d="M200.26,174.54v5.4a2.24,2.24,0,0,1-1.11-2.1v-1.19A2.24,2.24,0,0,1,200.26,174.54Z"/><path class="cls-2" d="M200.26,165.63v5.52A2.2,2.2,0,0,1,199,169v-1.21A2.2,2.2,0,0,1,200.26,165.63Z"/><path class="cls-2" d="M200.26,156.68v5.56a2.16,2.16,0,0,1-1.32-2.17v-1.21A2.18,2.18,0,0,1,200.26,156.68Z"/><path class="cls-2" d="M200.26,147.54v5.56a2.18,2.18,0,0,1-1.32-2.19v-1.21A2.16,2.16,0,0,1,200.26,147.54Z"/><path class="cls-2" d="M200.26,138.38V144a2.08,2.08,0,0,1-1.41-2.2v-1.19A2.08,2.08,0,0,1,200.26,138.38Z"/><path class="cls-3" d="M193.92,132.06a7.53,7.53,0,0,1,4.49,1.38l-21.53,21.47a2.88,2.88,0,0,0-1.56-.42H151.86c-1.36,0-2.46.81-2.46,1.82V181a1.46,1.46,0,0,0,.37,1l-21.51,21.47a3.93,3.93,0,0,1-1.33-2.86V199a2.19,2.19,0,0,0,1.25-2.16v-1.21a2.21,2.21,0,0,0-1.25-2.17V189.7a2.25,2.25,0,0,0,1.06-2.06v-1.21a2.27,2.27,0,0,0-1.06-2.08v-4a2.24,2.24,0,0,0,1.17-2.13V177a2.22,2.22,0,0,0-1.17-2.12v-3.34a2.17,2.17,0,0,0,1.29-2.17v-1.21a2.19,2.19,0,0,0-1.29-2.19v-3.35a2.14,2.14,0,0,0,1.37-2.2v-1.19a2.15,2.15,0,0,0-1.37-2.2v-3.54a2.15,2.15,0,0,0,1.37-2.2v-1.21a2.13,2.13,0,0,0-1.37-2.19v-3.54a2,2,0,0,0,1.47-2.21V141a2,2,0,0,0-1.47-2.21v-2c0-2.59,2.84-4.7,6.34-4.7h.14c0,.87,1,1.56,2.21,1.56h1.21c1.19,0,2.19-.69,2.23-1.56h3.57a2.12,2.12,0,0,0,2.2,1.38H146a2.12,2.12,0,0,0,2.2-1.38H152a2.06,2.06,0,0,0,2.21,1.48h1.19a2.06,2.06,0,0,0,2.21-1.48h3.2c0,.9,1,1.6,2.23,1.6h1.21c1.22,0,2.2-.71,2.21-1.6h3.28v.07c0,.9,1,1.62,2.23,1.62h1.21c1.22,0,2.23-.72,2.23-1.62v-.07h3.49v.07c0,.9,1,1.62,2.23,1.62h1.19c1.24,0,2.23-.72,2.23-1.62v-.07h3.5v.16c0,.9,1,1.63,2.23,1.63h1.19c1.24,0,2.23-.73,2.23-1.63v-.16Z"/><path class="cls-2" d="M193.7,132.06v.16c0,.9-1,1.63-2.23,1.63h-1.19c-1.24,0-2.23-.73-2.23-1.63v-.16Z"/><path class="cls-2" d="M193.7,126.44v5.62h-5.65v-5.62a1.72,1.72,0,0,1,1.44-1.51c0,.77.52,1.38,1.09,1.38h.6c.57,0,1-.61,1.07-1.4A1.74,1.74,0,0,1,193.7,126.44Z"/><path class="cls-2" d="M193.35,205.31v5.78a1.74,1.74,0,0,1-1.45,1.52c0-.79-.5-1.4-1.07-1.4h-.6c-.57,0-1,.61-1.07,1.4a1.74,1.74,0,0,1-1.45-1.52v-5.78a.08.08,0,0,1,0-.05h5.63Z"/><path class="cls-2" d="M193.35,205.25h-5.63c0-.87,1-1.57,2.21-1.57h1.19C192.33,203.68,193.31,204.39,193.35,205.25Z"/><path class="cls-2" d="M192.26,119.39v5.4a.38.38,0,0,1,0,.12,3.55,3.55,0,0,0-.77-.1h-1.19a2.9,2.9,0,0,0-.79.11.46.46,0,0,1,0-.14v-5.4c0-.84.5-1.52,1.1-1.52h.6C191.78,117.87,192.26,118.55,192.26,119.39Z"/><path class="cls-2" d="M191.48,124.82a3.55,3.55,0,0,1,.77.1c0,.79-.5,1.4-1.07,1.4h-.6c-.57,0-1-.61-1.09-1.38a2.9,2.9,0,0,1,.79-.11Z"/><path class="cls-2" d="M191.91,212.73v5.4c0,.83-.49,1.51-1.09,1.51h-.6c-.6,0-1.09-.68-1.09-1.51v-5.4a.38.38,0,0,1,0-.12,3.55,3.55,0,0,0,.77.1h1.19a3.55,3.55,0,0,0,.77-.1A.38.38,0,0,1,191.91,212.73Z"/><path class="cls-2" d="M191.9,212.61a3.55,3.55,0,0,1-.77.1h-1.19a3.55,3.55,0,0,1-.77-.1c0-.79.5-1.4,1.07-1.4h.6C191.4,211.21,191.86,211.82,191.9,212.61Z"/><path class="cls-2" d="M184.56,132.06v.07c0,.9-1,1.62-2.23,1.62h-1.19c-1.24,0-2.23-.72-2.23-1.62v-.07Z"/><path class="cls-2" d="M184.56,126.34v5.71h-5.65v-5.71a1.76,1.76,0,0,1,1.45-1.53c0,.77.5,1.4,1.07,1.4h.6c.57,0,1-.61,1.09-1.38A1.74,1.74,0,0,1,184.56,126.34Z"/><path class="cls-2" d="M184.2,205.4v5.78a1.74,1.74,0,0,1-1.44,1.52c0-.77-.5-1.38-1.09-1.38h-.58c-.58,0-1.06.62-1.09,1.4a1.78,1.78,0,0,1-1.45-1.53V205.4a.51.51,0,0,1,0-.15h5.62A.51.51,0,0,1,184.2,205.4Z"/><path class="cls-2" d="M184.19,205.25h-5.62a2.07,2.07,0,0,1,2.21-1.47H182A2,2,0,0,1,184.19,205.25Z"/><path class="cls-2" d="M183.13,119.3v5.4a.38.38,0,0,1,0,.12,2.9,2.9,0,0,0-.79-.11h-1.19a3.55,3.55,0,0,0-.77.1.26.26,0,0,1,0-.11v-5.4c0-.84.49-1.52,1.09-1.52h.6C182.63,117.78,183.13,118.45,183.13,119.3Z"/><path class="cls-2" d="M182.78,212.83v5.4c0,.84-.49,1.52-1.1,1.52h-.58c-.61,0-1.1-.68-1.1-1.52v-5.4a.26.26,0,0,1,0-.11,3.55,3.55,0,0,0,.77.1H182a2.88,2.88,0,0,0,.77-.11A.38.38,0,0,1,182.78,212.83Z"/><path class="cls-2" d="M182.33,124.71a2.9,2.9,0,0,1,.79.11c0,.77-.52,1.38-1.09,1.38h-.6c-.57,0-1-.62-1.07-1.4a3.55,3.55,0,0,1,.77-.1Z"/><path class="cls-2" d="M182.76,212.71a2.88,2.88,0,0,1-.77.11h-1.21a3.55,3.55,0,0,1-.77-.1c0-.77.5-1.4,1.09-1.4h.58C182.26,211.32,182.72,211.93,182.76,212.71Z"/><path class="cls-2" d="M175.42,132.06v.07c0,.9-1,1.62-2.23,1.62H172c-1.22,0-2.23-.72-2.23-1.62v-.07Z"/><path class="cls-2" d="M175.42,126.34v5.71h-5.66v-5.71a1.78,1.78,0,0,1,1.45-1.53c0,.77.5,1.4,1.09,1.4h.58c.58,0,1.06-.62,1.09-1.4A1.78,1.78,0,0,1,175.42,126.34Z"/><path class="cls-2" d="M175.07,205.4v5.78a1.78,1.78,0,0,1-1.45,1.53c0-.77-.5-1.4-1.07-1.4h-.6c-.58,0-1,.61-1.09,1.38a1.74,1.74,0,0,1-1.44-1.52V205.4a.51.51,0,0,1,0-.15h5.62A.51.51,0,0,1,175.07,205.4Z"/><path class="cls-2" d="M175.05,205.25h-5.62a2,2,0,0,1,2.21-1.47h1.19A2.07,2.07,0,0,1,175.05,205.25Z"/><path class="cls-2" d="M174,119.3v5.4a.26.26,0,0,1,0,.11,3.55,3.55,0,0,0-.77-.1H172a3.55,3.55,0,0,0-.77.1.26.26,0,0,1,0-.11v-5.4c0-.84.49-1.52,1.1-1.52h.58C173.49,117.78,174,118.45,174,119.3Z"/><path class="cls-2" d="M173.19,124.71a3.55,3.55,0,0,1,.77.1c0,.77-.5,1.4-1.09,1.4h-.58c-.58,0-1.06-.62-1.09-1.4a3.55,3.55,0,0,1,.77-.1Z"/><path class="cls-2" d="M173.63,212.83v5.4c0,.84-.49,1.52-1.09,1.52h-.6c-.61,0-1.1-.68-1.1-1.52v-5.4a.38.38,0,0,1,0-.12,2.9,2.9,0,0,0,.79.11h1.19a3.55,3.55,0,0,0,.77-.1A.26.26,0,0,1,173.63,212.83Z"/><path class="cls-2" d="M173.62,212.72a3.55,3.55,0,0,1-.77.1h-1.19a2.9,2.9,0,0,1-.79-.11c0-.77.5-1.38,1.09-1.38h.6C173.11,211.32,173.59,211.95,173.62,212.72Z"/><path class="cls-2" d="M166.48,126.26V132h-5.65v-5.78a1.78,1.78,0,0,1,1.45-1.53c0,.77.5,1.4,1.09,1.4H164c.58,0,1-.61,1.09-1.38A1.74,1.74,0,0,1,166.48,126.26Z"/><path class="cls-2" d="M160.83,132.06h5.65c0,.9-1,1.6-2.21,1.6h-1.21C161.83,133.66,160.84,133,160.83,132.06Z"/><path class="cls-2" d="M166.14,205.49v5.78a1.75,1.75,0,0,1-1.45,1.52c0-.79-.5-1.4-1.09-1.4H163c-.58,0-1,.61-1.09,1.38a1.71,1.71,0,0,1-1.44-1.51v-5.78a1.2,1.2,0,0,1,0-.23h5.59A1.2,1.2,0,0,1,166.14,205.49Z"/><path class="cls-2" d="M166.11,205.25h-5.59a2.1,2.1,0,0,1,2.19-1.4h1.21A2.12,2.12,0,0,1,166.11,205.25Z"/><path class="cls-2" d="M165.05,119.21v5.4a.38.38,0,0,1,0,.12,2.88,2.88,0,0,0-.77-.11h-1.21a3.55,3.55,0,0,0-.77.1.26.26,0,0,1,0-.11v-5.4c0-.84.49-1.52,1.1-1.52H164C164.56,117.69,165.05,118.37,165.05,119.21Z"/><path class="cls-2" d="M164.26,124.63a2.88,2.88,0,0,1,.77.11c0,.77-.5,1.38-1.09,1.38h-.58c-.58,0-1.06-.62-1.09-1.4a3.55,3.55,0,0,1,.77-.1Z"/><path class="cls-2" d="M164.7,212.91v5.4c0,.84-.49,1.52-1.1,1.52H163c-.61,0-1.1-.68-1.1-1.52v-5.4a.46.46,0,0,1,0-.14,2.88,2.88,0,0,0,.77.11h1.21a3.55,3.55,0,0,0,.77-.1A.38.38,0,0,1,164.7,212.91Z"/><path class="cls-2" d="M164.68,212.79a3.55,3.55,0,0,1-.77.1H162.7a2.88,2.88,0,0,1-.77-.11c0-.77.5-1.38,1.09-1.38h.58C164.18,211.39,164.64,212,164.68,212.79Z"/><path class="cls-2" d="M157.64,126.12v5.8a.46.46,0,0,1,0,.14H152a.46.46,0,0,1,0-.14v-5.8a1.74,1.74,0,0,1,1.45-1.52c0,.77.5,1.4,1.07,1.4h.6c.57,0,1-.62,1.07-1.4A1.74,1.74,0,0,1,157.64,126.12Z"/><path class="cls-2" d="M152,132.06h5.62a2.06,2.06,0,0,1-2.21,1.48h-1.19A2.06,2.06,0,0,1,152,132.06Z"/><path class="cls-2" d="M157.29,205.61v5.78a1.74,1.74,0,0,1-1.44,1.52c0-.77-.5-1.38-1.09-1.38h-.58c-.58,0-1.06.62-1.09,1.4a1.78,1.78,0,0,1-1.45-1.53v-5.78a1,1,0,0,1,.05-.35h5.54A1,1,0,0,1,157.29,205.61Z"/><path class="cls-2" d="M157.23,205.25h-5.54a2.19,2.19,0,0,1,2.17-1.26h1.21A2.17,2.17,0,0,1,157.23,205.25Z"/><path class="cls-2" d="M156.2,119.08v5.42a.26.26,0,0,1,0,.11,3.55,3.55,0,0,0-.77-.1h-1.19a3.55,3.55,0,0,0-.77.1.26.26,0,0,1,0-.11v-5.42c0-.83.49-1.51,1.09-1.51h.6C155.71,117.57,156.2,118.25,156.2,119.08Z"/><path class="cls-2" d="M155.86,213v5.4c0,.84-.49,1.52-1.1,1.52h-.58c-.61,0-1.1-.68-1.1-1.52V213a.26.26,0,0,1,0-.11,3.55,3.55,0,0,0,.77.1h1.21a2.88,2.88,0,0,0,.77-.11A.38.38,0,0,1,155.86,213Z"/><path class="cls-2" d="M155.41,124.51a3.55,3.55,0,0,1,.77.1c0,.77-.5,1.4-1.07,1.4h-.6c-.57,0-1-.62-1.07-1.4a3.55,3.55,0,0,1,.77-.1Z"/><path class="cls-2" d="M155.85,212.91a2.88,2.88,0,0,1-.77.11h-1.21a3.55,3.55,0,0,1-.77-.1c0-.77.5-1.4,1.09-1.4h.58C155.35,211.53,155.81,212.14,155.85,212.91Z"/><path class="cls-2" d="M148.25,126v5.78a1.5,1.5,0,0,1,0,.24h-5.61a1.5,1.5,0,0,1,0-.24V126a1.78,1.78,0,0,1,1.45-1.53c0,.79.5,1.41,1.09,1.41h.58c.58,0,1.06-.62,1.09-1.41A1.78,1.78,0,0,1,148.25,126Z"/><path class="cls-2" d="M142.61,132.06h5.61a2.12,2.12,0,0,1-2.2,1.38h-1.21A2.12,2.12,0,0,1,142.61,132.06Z"/><path class="cls-2" d="M147.89,205.72v5.78a1.75,1.75,0,0,1-1.45,1.52c0-.79-.5-1.4-1.09-1.4h-.58c-.58,0-1,.61-1.09,1.38a1.71,1.71,0,0,1-1.44-1.51v-5.78a1.08,1.08,0,0,1,.1-.46h5.46A1.08,1.08,0,0,1,147.89,205.72Z"/><path class="cls-2" d="M147.8,205.25h-5.46a2.22,2.22,0,0,1,2.12-1.17h1.21A2.24,2.24,0,0,1,147.8,205.25Z"/><path class="cls-2" d="M146.81,119v5.4a.3.3,0,0,1,0,.11,3.55,3.55,0,0,0-.77-.1h-1.21a3.55,3.55,0,0,0-.77.1.3.3,0,0,1,0-.11V119c0-.84.49-1.52,1.1-1.52h.58C146.32,117.46,146.81,118.14,146.81,119Z"/><path class="cls-2" d="M146,124.4a3.55,3.55,0,0,1,.77.1c0,.79-.5,1.41-1.09,1.41h-.58c-.58,0-1.06-.62-1.09-1.41a3.55,3.55,0,0,1,.77-.1Z"/><path class="cls-2" d="M146.46,213.14v5.4c0,.84-.49,1.52-1.1,1.52h-.58c-.61,0-1.1-.68-1.1-1.52v-5.4a.46.46,0,0,1,0-.14,2.88,2.88,0,0,0,.77.11h1.21a3.55,3.55,0,0,0,.77-.1A.38.38,0,0,1,146.46,213.14Z"/><path class="cls-2" d="M146.44,213a3.55,3.55,0,0,1-.77.1h-1.21a2.88,2.88,0,0,1-.77-.11c0-.77.5-1.38,1.09-1.38h.58C145.94,211.62,146.4,212.23,146.44,213Z"/><path class="cls-2" d="M139,126.22v5.84H133.4a.08.08,0,0,1,0-.05v-5.78a1.78,1.78,0,0,1,1.45-1.53c0,.79.5,1.41,1.09,1.41h.58c.58,0,1.06-.62,1.09-1.41A1.78,1.78,0,0,1,139,126.22Z"/><path class="cls-2" d="M133.4,132.06H139c0,.87-1,1.56-2.23,1.56h-1.21C134.42,133.62,133.43,132.92,133.4,132.06Z"/><path class="cls-2" d="M138.69,205.53v5.78a1.75,1.75,0,0,1-1.45,1.52c0-.79-.5-1.4-1.09-1.4h-.58c-.58,0-1,.61-1.09,1.38a1.71,1.71,0,0,1-1.44-1.51v-5.78a1,1,0,0,1,0-.29h5.58A1.67,1.67,0,0,1,138.69,205.53Z"/><path class="cls-2" d="M138.66,205.25h-5.58a2.12,2.12,0,0,1,2.17-1.34h1.21A2.15,2.15,0,0,1,138.66,205.25Z"/><path class="cls-2" d="M137.61,119.17v5.4a.3.3,0,0,1,0,.11,3.55,3.55,0,0,0-.77-.1h-1.21a3.55,3.55,0,0,0-.77.1.3.3,0,0,1,0-.11v-5.4c0-.84.49-1.52,1.1-1.52h.58C137.12,117.65,137.61,118.33,137.61,119.17Z"/><path class="cls-2" d="M136.82,124.59a3.55,3.55,0,0,1,.77.1c0,.79-.5,1.41-1.09,1.41h-.58c-.58,0-1.06-.62-1.09-1.41a3.55,3.55,0,0,1,.77-.1Z"/><path class="cls-2" d="M137.25,213v5.4c0,.84-.49,1.52-1.1,1.52h-.58c-.61,0-1.1-.68-1.1-1.52V213a.46.46,0,0,1,0-.14,2.88,2.88,0,0,0,.77.11h1.21a3.55,3.55,0,0,0,.77-.1A.38.38,0,0,1,137.25,213Z"/><path class="cls-2" d="M137.24,212.83a3.55,3.55,0,0,1-.77.1h-1.21a2.88,2.88,0,0,1-.77-.11c0-.77.5-1.38,1.09-1.38h.58C136.74,211.43,137.2,212,137.24,212.83Z"/><path class="cls-2" d="M128.39,141v1.19a2,2,0,0,1-1.47,2.21v-5.62A2,2,0,0,1,128.39,141Z"/><path class="cls-2" d="M128.29,159.26v1.19a2.14,2.14,0,0,1-1.37,2.2v-5.59A2.15,2.15,0,0,1,128.29,159.26Z"/><path class="cls-2" d="M128.29,150.11v1.21a2.15,2.15,0,0,1-1.37,2.2v-5.59A2.13,2.13,0,0,1,128.29,150.11Z"/><path class="cls-2" d="M128.21,168.19v1.21a2.17,2.17,0,0,1-1.29,2.17V166A2.19,2.19,0,0,1,128.21,168.19Z"/><path class="cls-2" d="M128.17,195.63v1.21a2.19,2.19,0,0,1-1.25,2.16v-5.54A2.21,2.21,0,0,1,128.17,195.63Z"/><path class="cls-2" d="M128.09,177v1.21a2.24,2.24,0,0,1-1.17,2.13v-5.46A2.22,2.22,0,0,1,128.09,177Z"/><path class="cls-2" d="M128,186.43v1.21a2.25,2.25,0,0,1-1.06,2.06v-5.35A2.27,2.27,0,0,1,128,186.43Z"/><path class="cls-2" d="M126.92,193.46V199a1.14,1.14,0,0,1-.37.05h-5.78a1.74,1.74,0,0,1-1.52-1.44c.77,0,1.38-.5,1.38-1.09v-.58c0-.58-.62-1.06-1.4-1.09a1.78,1.78,0,0,1,1.53-1.45h5.78A1.14,1.14,0,0,1,126.92,193.46Z"/><path class="cls-2" d="M126.92,184.35v5.35a1,1,0,0,1-.56.15h-5.78a1.74,1.74,0,0,1-1.52-1.44c.77,0,1.38-.5,1.38-1.09v-.58c0-.58-.62-1.06-1.4-1.09a1.78,1.78,0,0,1,1.53-1.45h5.78A1.18,1.18,0,0,1,126.92,184.35Z"/><path class="cls-2" d="M126.92,174.91v5.46a1.08,1.08,0,0,1-.46.1h-5.78a1.75,1.75,0,0,1-1.52-1.45c.79,0,1.4-.5,1.4-1.07v-.6c0-.58-.61-1-1.38-1.09a1.71,1.71,0,0,1,1.51-1.44h5.78A1.08,1.08,0,0,1,126.92,174.91Z"/><path class="cls-2" d="M126.92,166v5.56a1.34,1.34,0,0,1-.33,0h-5.8a1.71,1.71,0,0,1-1.51-1.44c.77,0,1.38-.5,1.38-1.09v-.58c0-.58-.61-1-1.4-1.09A1.75,1.75,0,0,1,120.8,166h5.8A1.34,1.34,0,0,1,126.92,166Z"/><path class="cls-2" d="M126.92,157.06v5.59a1.5,1.5,0,0,1-.26,0h-5.78a1.72,1.72,0,0,1-1.51-1.44c.77,0,1.38-.5,1.38-1.09v-.6c0-.57-.61-1-1.4-1.07a1.75,1.75,0,0,1,1.52-1.45h5.78A1.5,1.5,0,0,1,126.92,157.06Z"/><path class="cls-2" d="M126.92,147.92v5.59a1.5,1.5,0,0,1-.26,0h-5.78a1.75,1.75,0,0,1-1.52-1.45c.79,0,1.4-.5,1.4-1.09v-.58c0-.58-.61-1-1.38-1.09a1.71,1.71,0,0,1,1.51-1.44h5.78A1.5,1.5,0,0,1,126.92,147.92Z"/><path class="cls-2" d="M126.92,138.76v5.62H121a1.76,1.76,0,0,1-1.53-1.45c.77,0,1.4-.5,1.4-1.07v-.6c0-.57-.62-1-1.4-1.07a1.76,1.76,0,0,1,1.53-1.45h5.93Z"/><path class="cls-2" d="M120.86,141.27v.6c0,.57-.62,1-1.4,1.07a3.55,3.55,0,0,1-.1-.77V141a3.55,3.55,0,0,1,.1-.77C120.23,140.23,120.86,140.7,120.86,141.27Z"/><path class="cls-2" d="M120.76,159.55v.6c0,.58-.61,1-1.38,1.09a2.9,2.9,0,0,1-.11-.79v-1.19a3.55,3.55,0,0,1,.1-.77C120.15,158.52,120.76,159,120.76,159.55Z"/><path class="cls-2" d="M120.76,150.42V151c0,.58-.61,1-1.4,1.09a3.55,3.55,0,0,1-.1-.77v-1.21a2.88,2.88,0,0,1,.11-.77C120.15,149.37,120.76,149.84,120.76,150.42Z"/><path class="cls-2" d="M120.68,168.5v.58c0,.58-.61,1-1.38,1.09a2.88,2.88,0,0,1-.11-.77v-1.21a3.55,3.55,0,0,1,.1-.77C120.07,167.45,120.68,167.92,120.68,168.5Z"/><path class="cls-2" d="M120.64,195.94v.58c0,.58-.61,1-1.38,1.09a2.88,2.88,0,0,1-.11-.77v-1.21a3.55,3.55,0,0,1,.1-.77C120,194.88,120.64,195.36,120.64,195.94Z"/><path class="cls-2" d="M120.56,177.33v.6c0,.57-.61,1-1.4,1.07a3.55,3.55,0,0,1-.1-.77V177a2.88,2.88,0,0,1,.11-.77C119.95,176.29,120.56,176.75,120.56,177.33Z"/><path class="cls-2" d="M120.45,186.74v.58c0,.58-.61,1-1.38,1.09a2.88,2.88,0,0,1-.11-.77v-1.21a3.55,3.55,0,0,1,.1-.77C119.83,185.68,120.45,186.16,120.45,186.74Z"/><path class="cls-2" d="M119.35,140.19a.26.26,0,0,1,.11,0,3.55,3.55,0,0,0-.1.77v1.19a3.55,3.55,0,0,0,.1.77.26.26,0,0,1-.11,0h-5.4c-.84,0-1.52-.49-1.52-1.09v-.6c0-.6.68-1.09,1.52-1.09Z"/><path class="cls-2" d="M119.24,149.32h.14a2.88,2.88,0,0,0-.11.77v1.21a3.55,3.55,0,0,0,.1.77h-5.52c-.83,0-1.51-.49-1.51-1.1v-.58c0-.61.68-1.1,1.51-1.1Z"/><path class="cls-2" d="M119.38,161.24h-5.54c-.83,0-1.51-.49-1.51-1.1v-.6c0-.6.68-1.09,1.51-1.09h5.52a3.55,3.55,0,0,0-.1.77v1.19A2.9,2.9,0,0,0,119.38,161.24Z"/><path class="cls-2" d="M119.3,170.17h-5.54c-.83,0-1.51-.49-1.51-1.1v-.58c0-.61.68-1.1,1.51-1.1h5.52a3.55,3.55,0,0,0-.1.77v1.21A2.88,2.88,0,0,0,119.3,170.17Z"/><path class="cls-2" d="M119.26,197.61h-5.54c-.83,0-1.51-.49-1.51-1.1v-.58c0-.61.68-1.1,1.51-1.1h5.42a.26.26,0,0,1,.11,0,3.55,3.55,0,0,0-.1.77v1.21A2.88,2.88,0,0,0,119.26,197.61Z"/><path class="cls-2" d="M119,176.24h.14a2.88,2.88,0,0,0-.11.77v1.21a3.55,3.55,0,0,0,.1.77h-5.52c-.84,0-1.52-.49-1.52-1.09v-.6c0-.61.68-1.1,1.52-1.1Z"/><path class="cls-2" d="M119.07,188.41h-5.52c-.84,0-1.52-.49-1.52-1.1v-.58c0-.61.68-1.1,1.52-1.1h5.4a.26.26,0,0,1,.11,0,3.55,3.55,0,0,0-.1.77v1.21A2.88,2.88,0,0,0,119.07,188.41Z"/></svg>